Malin som precis har förlorat sin bror i ett självmord bestämmer
sig för att flytta upp i norr för att starta ett nytt liv efter familjetragedin.
På vägen upp till den nya hemstaden möter hon på en väldigt lustig man
som förföljer henne med sin bil. Hon börjar känna obehag från mannen
bakom ratten, och blir ännu räddare när han närmar sig henne.

Format                         : OGG
Format/Info                    : Advanced Video Codec
File size                      : 755 MiB
Duration                       : 1h 33mn
Overall bit rate mode          : Variable
Overall bit rate               : 1 128 Kbps

Video
ID                             : 0 (0x0)
Format                         : AVC
Format/Info                    : Advanced Video Codec
Codec ID                       : H264
Duration                       : 1h 33mn
Bit rate                       : 947 Kbps
Width                          : 640 pixels
Height                         : 264 pixels
Display aspect ratio           : 2.40:1
Frame rate                     : 25.000 fps
Color space                    : YUV
Chroma subsampling             : 4:2:0
Bits/(Pixel*Frame)             : 0.224
Stream size                    : 634 MiB (84%)

Audio
ID                             : 1 (0x1)
Format                         : Vorbis
Format settings, Floor         : 1
Duration                       : 1h 33mn
Bit rate mode                  : Variable
Bit rate                       : 128 Kbps
Channel(s)                     : 2 channels
Sampling rate                  : 48.0 KHz
Compression mode               : Lossy
Stream size                    : 85.7 MiB (11%)
Writing library                : libVorbis 1.0 (UTC 2002-07-17)

Menu
00:00:00.000                   : Ch. 01 @ 00:00:00
00:04:51.440                   : Ch. 02 @ 00:04:51
00:10:09.840                   : Ch. 03 @ 00:10:09
00:15:20.960                   : Ch. 04 @ 00:15:20
00:19:35.160                   : Ch. 05 @ 00:19:35
00:25:10.040                   : Ch. 06 @ 00:25:10
00:28:58.000                   : Ch. 07 @ 00:28:58
00:35:21.240                   : Ch. 08 @ 00:35:21
00:39:09.880                   : Ch. 09 @ 00:39:09
00:44:25.960                   : Ch. 10 @ 00:44:25
00:49:28.360                   : Ch. 11 @ 00:49:28
00:54:16.120                   : Ch. 12 @ 00:54:16
00:59:47.960                   : Ch. 13 @ 00:59:47
01:06:04.920                   : Ch. 14 @ 01:06:04
01:12:30.440                   : Ch. 15 @ 01:12:30
01:17:27.000                   : Ch. 16 @ 01:17:27
01:23:15.160                   : Ch. 17 @ 01:23:15
01:29:55.160                   : Ch. 18 @ 01:29:55

